<svg xmlns="http://www.w3.org/2000/svg" xml:space="preserve" viewBox="0 0 256 256" fill="#111827">
  <path d="M10 128v77.8l3.2-1c7.5-2.1 19.7-5.4 26.7-6.9 6.5-1.5 23.6-5.1 24.2-5.1.1 0 .2-29.1.2-64.7s-.1-64.7-.2-64.7c-.6 0-17.7-3.6-24.2-5.1-6.9-1.6-19.2-4.8-26.6-6.9l-3.3-1V128zm231-76.2c-12 3.4-30.5 7.9-46.4 11.1l-2.8.5v129.3l2.8.5c15.9 3.2 34.4 7.6 46.4 11.1l4.8 1.4.1-39V89l-.1-38.7-4.8 1.5zM72 128.5v63.3l1.1-.2c2.1-.5 18.2-2.7 25.1-3.4 21.8-2.3 40.1-2.3 62 0 6.9.7 19.6 2.4 21.7 2.9l1.1.2V65.7l-1 .3c-2.3.5-15 2.2-22 2.9-27.1 2.7-47.6 2.2-77.3-1.9-4.7-.7-9-1.3-9.5-1.5l-1.2-.3v63.3z"/>
</svg>
